{"glyphs":{"0":{"ha":1861,"x_min":0,"x_max":0,"o":"m 1315 967 b 835 947 1114 967 954 960 b 554 890 714 935 621 915 b 369 788 486 865 425 831 b 217 628 318 747 268 693 b 89 424 165 563 122 494 b 39 236 56 353 39 290 b 96 89 39 176 58 128 b 292 -3 133 49 199 18 b 675 -36 385 -25 513 -36 b 1157 -17 876 -36 1036 -29 b 1438 40 1276 -4 1369 15 b 1621 143 1504 65 1565 100 b 1775 303 1672 183 1724 238 b 1901 507 1826 368 1868 436 b 1951 694 1935 578 1951 640 b 1896 843 1951 754 1933 803 b 1700 935 1858 882 1793 913 b 1315 967 1607 956 1478 967 z m 1114 699 b 1132 676 1126 699 1132 692 b 1072 529 1132 650 1113 601 b 942 326 1032 456 988 389 b 846 232 894 264 863 232 b 828 254 833 232 828 239 b 889 403 828 281 849 329 b 1019 606 929 475 972 543 b 1114 699 1065 668 1097 699 z "},"1":{"ha":1250,"x_min":0,"x_max":0,"o":"m 238 731 l 107 529 l 493 529 l 151 0 l 985 0 l 1586 931 l 753 931 z "},"2":{"ha":1861,"x_min":0,"x_max":0,"o":"m 881 407 l 1549 407 b 1744 424 1633 407 1699 413 b 1863 485 1790 433 1829 454 b 1976 631 1894 515 1933 564 b 2031 774 2013 685 2031 733 b 1878 918 2031 838 1979 886 b 1369 967 1775 950 1606 967 b 835 951 1215 967 1036 961 b 414 917 633 942 493 929 l 163 529 l 1142 529 l 1106 474 l 604 474 b 293 450 475 474 371 465 b 99 368 214 433 150 406 b -49 204 47 331 -3 275 l -181 0 l 1568 0 l 1796 351 l 844 351 z "},"3":{"ha":1861,"x_min":0,"x_max":0,"o":"m 1067 515 l 600 474 l 558 408 l 997 408 l 961 353 l 32 353 l -187 14 b 306 -21 -61 1 104 -11 b 879 -36 507 -31 697 -36 b 1313 -10 1058 -36 1203 -28 b 1568 67 1422 8 1508 33 b 1711 199 1628 100 1676 144 b 1760 333 1743 247 1760 292 b 1700 436 1760 376 1740 411 b 1518 474 1660 461 1600 474 l 1246 474 l 1256 488 l 1896 529 l 2156 931 l 406 931 l 146 529 l 1075 529 z "},"4":{"ha":1861,"x_min":0,"x_max":0,"o":"m 843 160 l 729 160 l 1310 931 l 476 931 l -162 93 l 800 93 l 740 0 l 1574 0 l 2044 731 l 1211 731 z "},"5":{"ha":1861,"x_min":0,"x_max":0,"o":"m 47 351 l -171 14 b 321 -21 -43 0 121 -11 b 892 -36 519 -31 710 -36 b 1325 -11 1071 -36 1215 -28 b 1582 68 1433 6 1519 32 b 1736 215 1644 103 1696 153 b 1774 326 1761 254 1774 292 b 1719 432 1774 369 1756 404 b 1549 474 1683 460 1626 474 l 825 474 l 861 529 l 1915 529 l 2174 931 l 424 931 l 85 407 l 1010 407 l 972 351 z "},"6":{"ha":1861,"x_min":0,"x_max":0,"o":"m 919 397 b 964 356 949 397 964 383 b 946 297 964 340 958 321 b 900 232 933 272 918 250 b 851 204 882 214 867 204 b 831 224 838 204 831 211 b 919 397 831 250 860 308 z m 39 243 b 100 81 39 174 60 119 b 347 -7 140 42 224 13 b 903 -36 471 -26 656 -36 b 1344 -7 1085 -36 1232 -26 b 1600 72 1456 11 1540 38 b 1739 200 1658 106 1704 149 b 1785 332 1769 246 1785 290 b 1728 436 1785 375 1765 410 b 1549 474 1690 461 1631 474 l 913 474 l 949 529 l 1869 529 l 2122 919 b 1651 953 2001 932 1844 943 b 1122 967 1458 963 1282 967 b 676 926 940 967 792 953 b 399 810 561 900 469 861 b 197 604 328 758 260 690 b 79 406 146 536 106 469 b 39 243 53 340 39 286 z "},"7":{"ha":1703,"x_min":0,"x_max":0,"o":"m 371 931 l 107 529 l 611 529 l -21 0 l 1007 0 l 2069 931 z "},"8":{"ha":1861,"x_min":0,"x_max":0,"o":"m 697 -36 b 1344 8 969 -36 1185 -21 b 1682 129 1504 38 1617 78 b 1779 317 1747 181 1779 243 b 1742 419 1779 356 1767 390 b 1639 483 1715 449 1682 469 b 1829 546 1704 493 1768 514 b 1976 656 1889 578 1939 614 b 2032 772 2014 696 2032 735 b 1978 883 2032 818 2014 856 b 1764 946 1942 910 1871 931 b 1289 967 1657 960 1499 967 b 683 925 1033 967 832 953 b 371 811 535 897 431 860 b 282 638 311 763 282 706 b 311 549 282 606 292 575 b 392 483 331 522 357 500 b 140 418 294 471 211 449 b -19 314 69 388 17 353 b -74 196 -56 274 -74 235 b -15 75 -74 149 -54 108 b 213 -6 24 42 100 15 b 697 -36 325 -26 486 -36 z m 1138 743 b 1154 739 1144 743 1150 742 b 1158 722 1157 735 1158 729 b 1138 661 1158 710 1151 689 b 1086 588 1122 633 1106 608 b 1033 556 1067 567 1049 556 b 1018 561 1026 556 1021 557 b 1013 576 1014 564 1013 569 b 1035 638 1013 589 1019 610 b 1085 711 1049 665 1065 690 b 1138 743 1104 732 1122 743 z m 943 424 b 960 419 950 424 956 422 b 964 403 963 415 964 410 b 943 342 964 390 957 369 b 892 268 928 314 911 289 b 839 236 872 247 854 236 b 824 242 832 236 826 238 b 818 257 819 244 818 250 b 840 318 818 269 825 290 b 890 392 854 346 871 371 b 943 424 910 413 928 424 z "},"9":{"ha":1861,"x_min":0,"x_max":0,"o":"m 1072 533 b 1028 575 1043 533 1028 547 b 1047 635 1028 590 1035 610 b 1092 699 1060 658 1074 681 b 1140 726 1110 717 1125 726 b 1161 707 1154 726 1161 719 b 1072 533 1161 681 1132 622 z m 1953 688 b 1892 850 1953 757 1932 811 b 1646 938 1851 889 1769 918 b 1089 967 1522 957 1336 967 b 649 939 907 967 760 957 b 393 860 536 919 451 893 b 253 731 333 825 288 782 b 207 599 222 685 207 640 b 264 496 207 556 226 521 b 443 457 301 469 361 457 l 1079 457 l 1043 401 l 122 401 l -131 11 b 340 -21 -10 -1 147 -11 b 869 -36 533 -31 710 -36 b 1315 4 1051 -36 1200 -22 b 1594 121 1431 31 1524 69 b 1794 326 1665 172 1732 240 b 1913 526 1846 394 1886 461 b 1953 688 1939 590 1953 644 z "}," ":{"ha":278,"x_min":0,"x_max":0,"o":""}," ":{"ha":278,"x_min":0,"x_max":0,"o":""},"!":{"ha":947,"x_min":0,"x_max":0,"o":"m 1256 931 l 422 931 l 64 375 l 897 375 z m 28 319 l -179 0 l 654 0 l 861 319 z "},"'":{"ha":278,"x_min":0,"x_max":0,"o":"m 388 931 l 210 667 l 272 667 l 450 931 z "},",":{"ha":278,"x_min":0,"x_max":0,"o":"m -153 56 l -331 -208 l -268 -208 l -90 56 z "},"-":{"ha":944,"x_min":0,"x_max":0,"o":"m 76 419 l 910 419 l 946 475 l 113 475 z "},".":{"ha":278,"x_min":0,"x_max":0,"o":"m -149 69 l -196 0 l -99 0 l -51 69 z "},":":{"ha":278,"x_min":0,"x_max":0,"o":"m -149 69 l -196 0 l -99 0 l -51 69 z m 94 443 l 47 374 l 144 374 l 192 443 z "},";":{"ha":278,"x_min":0,"x_max":0,"o":"m -125 56 l -303 -208 l -240 -208 l -62 56 z m 88 443 l 40 374 l 138 374 l 185 443 z "},"?":{"ha":1861,"x_min":0,"x_max":0,"o":"m 407 264 l 236 0 l 1140 0 l 1311 264 z m 1071 499 l 560 499 l 443 319 l 1417 319 b 1751 367 1550 319 1661 335 b 1951 493 1842 397 1908 439 b 2015 676 1994 547 2015 608 b 1849 888 2015 764 1960 835 b 1308 967 1738 940 1557 967 b 839 940 1144 967 988 958 b 333 857 689 922 521 894 l 136 554 l 997 554 b 1050 626 1019 592 1038 615 b 1100 643 1063 638 1079 643 b 1132 619 1121 643 1132 635 b 1094 535 1132 601 1119 572 z "},"A":{"ha":1906,"x_min":0,"x_max":0,"o":"m 728 126 l 914 126 l 868 0 l 1696 0 l 2049 931 l 488 931 l -265 0 l 632 0 z m 829 261 l 1090 608 l 964 261 z "},"B":{"ha":1961,"x_min":0,"x_max":0,"o":"m 1121 722 b 1190 713 1154 722 1178 719 b 1210 681 1203 706 1210 696 b 1183 625 1210 663 1201 644 b 1110 575 1165 604 1140 588 b 1011 554 1079 561 1046 554 z m 939 443 b 1003 426 968 443 989 438 b 1024 382 1017 415 1024 400 b 992 313 1024 361 1013 338 b 908 249 971 286 943 265 b 796 222 874 231 836 222 z m 422 931 l -182 0 l 1310 0 b 1606 44 1422 0 1521 15 b 1796 161 1689 74 1753 113 b 1861 314 1839 210 1861 260 b 1726 483 1861 390 1817 447 b 1931 558 1804 501 1872 526 b 2065 663 1989 590 2033 625 b 2113 775 2097 700 2113 738 b 2044 893 2113 828 2090 867 b 1836 931 1999 918 1929 931 z "},"C":{"ha":2053,"x_min":0,"x_max":0,"o":"m 1493 -15 b 1790 47 1603 -3 1701 18 l 2036 429 b 1615 417 1926 424 1786 419 b 1144 411 1444 413 1288 411 b 946 458 1013 411 946 426 b 1001 501 946 475 964 489 b 1203 519 1038 514 1104 519 b 1588 508 1324 519 1453 515 b 2057 468 1722 500 1878 486 l 2290 821 b 1872 929 2168 867 2029 903 b 1360 967 1715 954 1544 967 b 669 885 1088 967 857 939 b 247 671 481 829 340 758 b 107 394 154 583 107 490 b 207 182 107 318 140 247 b 531 25 274 117 382 65 b 1103 -36 679 -15 871 -36 b 1493 -15 1253 -36 1383 -29 z "},"D":{"ha":1971,"x_min":0,"x_max":0,"o":"m 1931 347 b 2039 663 2003 449 2039 554 b 1935 858 2039 744 2004 810 b 1615 931 1865 907 1758 931 l 422 931 l -182 0 l 1124 0 b 1615 97 1313 0 1476 32 b 1931 347 1753 163 1858 246 z m 956 343 b 842 293 908 308 871 292 l 1085 667 b 1119 650 1097 667 1110 661 b 1135 606 1129 638 1135 624 b 1081 468 1135 563 1117 517 b 956 343 1044 418 1003 376 z "},"E":{"ha":1847,"x_min":0,"x_max":0,"o":"m 1811 375 l 897 378 l 932 432 l 1701 429 l 1747 499 l 976 499 l 1013 554 l 1929 556 l 2172 931 l 422 931 l -182 0 l 1568 0 z "},"F":{"ha":1833,"x_min":0,"x_max":0,"o":"m 940 444 l 976 500 l 1892 500 l 2172 931 l 422 931 l -182 0 l 651 0 l 746 146 l 1575 146 l 1768 444 z "},"G":{"ha":2053,"x_min":0,"x_max":0,"o":"m 976 413 b 949 444 958 421 949 432 b 968 486 949 461 956 475 b 1047 511 981 496 1007 504 b 1219 519 1086 517 1143 519 b 1622 511 1364 519 1499 517 b 2074 482 1746 506 1897 496 l 2293 821 b 1874 929 2171 867 2031 903 b 1360 967 1715 954 1544 967 b 667 883 1086 967 856 939 b 243 667 476 828 336 756 b 103 382 150 576 103 482 b 183 172 103 299 129 229 b 397 43 236 115 307 72 b 697 0 488 14 588 0 b 1151 192 886 0 1038 64 l 1151 0 l 1760 0 l 2044 438 l 1151 438 b 1049 399 1128 411 1094 399 b 976 413 1019 399 994 403 z "},"H":{"ha":1861,"x_min":0,"x_max":0,"o":"m 992 524 l 1256 931 l 422 931 l -182 0 l 651 0 l 904 389 l 988 389 l 735 0 l 1568 0 l 2172 931 l 1339 931 l 1075 524 z "},"I":{"ha":944,"x_min":0,"x_max":0,"o":"m 651 0 l 1256 931 l 422 931 l -182 0 z "},"J":{"ha":1276,"x_min":0,"x_max":0,"o":"m 113 -19 b 517 -36 244 -31 379 -36 b 807 -1 629 -36 726 -25 b 1033 125 888 22 963 64 b 1249 386 1104 185 1175 272 l 1599 931 l 765 931 l 428 403 l 33 403 l -215 22 b 113 -19 -128 6 -19 -8 z "},"K":{"ha":1858,"x_min":0,"x_max":0,"o":"m 422 931 l -182 0 l 651 0 l 1256 931 z m 954 460 l 774 0 l 1607 0 l 1747 418 l 2211 931 l 1378 931 z "},"L":{"ha":1467,"x_min":0,"x_max":0,"o":"m 1461 403 l 913 403 l 1256 931 l 422 931 l -182 0 l 1201 0 z "},"M":{"ha":2000,"x_min":0,"x_max":0,"o":"m 1707 0 l 2311 931 l 1382 931 l 1053 450 l 1256 931 l 422 931 l -182 0 l 651 0 l 951 451 l 779 0 l 801 0 l 1164 451 l 915 0 z "},"N":{"ha":1901,"x_min":0,"x_max":0,"o":"m 422 931 l -182 0 l 651 0 l 950 451 l 775 0 l 1608 0 l 2213 931 l 1379 931 l 1067 450 l 1256 931 z "},"O":{"ha":2053,"x_min":0,"x_max":0,"o":"m 965 329 b 1001 440 965 354 978 392 b 1085 572 1025 489 1053 533 b 1163 631 1115 611 1142 631 b 1182 604 1175 631 1182 622 b 1146 493 1182 579 1169 542 b 1064 360 1122 443 1094 399 b 988 301 1032 321 1007 301 b 965 329 972 301 965 311 z m 926 -36 b 1576 54 1185 -36 1401 -6 b 1967 288 1751 114 1882 192 b 2093 597 2051 383 2093 488 b 1256 967 2093 843 1814 967 b 607 878 999 967 782 938 b 218 643 432 818 303 739 b 90 333 133 547 90 443 b 282 65 90 221 154 132 b 926 -36 408 -3 624 -36 z "},"P":{"ha":1893,"x_min":0,"x_max":0,"o":"m 776 194 l 1061 194 b 1594 263 1269 194 1447 217 b 1926 450 1740 308 1851 371 b 2038 718 2000 529 2038 618 b 1956 875 2038 785 2010 838 b 1726 931 1901 913 1825 931 l 422 931 l -182 0 l 651 0 z m 1032 472 b 938 442 999 451 967 440 l 1092 681 b 1133 668 1108 681 1122 676 b 1149 633 1143 658 1149 647 b 1115 550 1149 608 1138 581 b 1032 472 1092 519 1064 493 z "},"Q":{"ha":2053,"x_min":0,"x_max":0,"o":"m 1000 440 b 1083 572 1024 489 1051 533 b 1161 631 1114 611 1140 631 b 1181 604 1174 631 1181 622 b 1144 493 1181 579 1168 542 b 1063 360 1121 443 1093 399 b 986 301 1031 321 1006 301 b 964 329 971 301 964 311 b 1000 440 964 354 976 392 z m 1219 38 b 1606 107 1367 51 1494 74 b 1978 310 1774 158 1899 225 b 2096 589 2057 393 2096 486 b 2015 779 2096 660 2069 722 b 1746 915 1961 835 1871 881 b 1254 967 1621 950 1457 967 b 618 878 1007 967 794 938 b 218 642 442 818 308 739 b 83 329 128 543 83 439 b 160 158 83 269 108 213 b 424 19 210 103 297 57 b 925 -36 549 -18 715 -36 l 1744 -36 l 1799 47 z "},"R":{"ha":1875,"x_min":0,"x_max":0,"o":"m 1122 550 b 1036 472 1099 518 1071 493 b 938 442 1001 451 969 440 l 1092 681 b 1139 668 1111 681 1126 676 b 1156 633 1150 660 1156 649 b 1122 550 1156 608 1144 581 z m 1651 336 b 1788 386 1699 346 1743 363 b 1969 538 1864 426 1924 476 b 2038 718 2015 599 2038 658 b 1950 878 2038 789 2008 843 b 1667 931 1890 913 1796 931 l 422 931 l -182 0 l 651 0 l 818 257 l 818 0 l 1651 0 z "},"S":{"ha":1929,"x_min":0,"x_max":0,"o":"m 1154 431 b 1143 400 1154 418 1150 407 b 1099 383 1136 393 1121 388 b 1001 376 1076 379 1044 376 l 35 376 l -165 67 b 344 -4 -36 40 133 17 b 942 -36 556 -25 754 -36 b 1511 24 1185 -36 1374 -17 b 1801 213 1647 63 1744 125 b 1849 347 1833 261 1849 306 b 1792 457 1849 393 1829 429 b 1611 499 1753 485 1693 499 l 939 500 b 950 531 939 513 943 524 b 994 549 957 538 972 544 b 1092 554 1017 553 1049 554 l 2024 554 l 2224 864 b 1738 935 2119 889 1958 913 b 1151 967 1517 956 1321 967 b 554 908 893 967 694 947 b 257 718 414 868 315 806 b 210 583 225 669 210 625 b 268 474 210 538 229 501 b 447 432 306 446 365 432 z "},"T":{"ha":1806,"x_min":0,"x_max":0,"o":"m 367 931 l 125 556 l 631 556 l 269 0 l 1103 0 l 1444 528 l 1896 528 l 2158 931 z "},"U":{"ha":1849,"x_min":0,"x_max":0,"o":"m 910 414 b 939 464 914 424 924 440 l 1242 931 l 408 931 l 18 324 b -36 157 -18 267 -36 211 b 46 18 -36 100 -8 54 b 314 -36 100 -18 189 -36 b 589 14 408 -36 500 -19 b 792 133 676 46 744 86 l 793 0 l 1556 0 l 2158 931 l 1325 931 l 1022 464 b 968 393 1000 431 982 407 b 926 372 954 379 940 372 b 910 378 919 372 914 374 b 903 389 906 381 903 385 b 910 414 903 396 906 404 z "},"V":{"ha":1919,"x_min":0,"x_max":0,"o":"m 1319 931 l 1003 350 l 1194 931 l 339 931 l 250 0 l 1547 0 l 2314 931 z "},"W":{"ha":2135,"x_min":0,"x_max":0,"o":"m 339 931 l 249 0 l 846 0 l 1156 467 l 983 0 l 1761 0 l 2529 931 l 1554 931 l 1249 465 l 1435 931 l 1413 931 l 1036 465 l 1290 931 z "},"X":{"ha":1846,"x_min":0,"x_max":0,"o":"m 596 0 l 942 460 l 1201 931 l 368 931 l 178 501 l -237 0 z m 942 460 l 760 0 l 1593 0 l 1733 418 l 2199 931 l 1365 931 z "},"Y":{"ha":1919,"x_min":0,"x_max":0,"o":"m 1335 931 l 1056 467 l 1210 931 l 339 931 l 517 214 l 376 0 l 1349 0 l 1465 179 l 2314 931 z "},"Z":{"ha":1861,"x_min":0,"x_max":0,"o":"m 2168 931 l 422 931 l 158 524 l 971 524 l 82 407 l -178 0 l 1568 0 l 1832 407 l 1019 407 l 1908 524 z "},"a":{"ha":1842,"x_min":0,"x_max":0,"o":"m 688 247 b 764 294 707 265 732 282 b 860 314 796 307 828 314 b 763 199 825 260 792 222 b 688 164 732 175 707 164 b 657 196 667 164 657 175 b 688 247 657 211 667 229 z m 963 372 l 549 372 b 47 303 308 372 142 349 b -96 128 -49 257 -96 199 b -11 8 -96 78 -68 38 b 236 -36 46 -21 128 -36 b 490 -8 321 -36 406 -26 b 715 71 575 10 650 36 b 818 143 757 92 790 117 l 792 0 l 1556 0 l 1804 382 b 1878 567 1853 457 1878 518 b 1726 718 1878 635 1828 686 b 1225 767 1625 750 1457 767 b 690 751 1071 767 892 761 b 269 717 489 742 349 729 l 81 425 l 997 425 z "},"b":{"ha":1965,"x_min":0,"x_max":0,"o":"m 429 931 l -175 0 l 658 0 l 731 108 b 922 1 789 61 853 25 b 1168 -36 990 -24 1072 -36 b 1600 58 1331 -36 1475 -4 b 1888 290 1724 121 1819 197 b 1988 551 1954 382 1988 469 b 1907 711 1988 619 1961 674 b 1661 767 1853 749 1771 767 b 1324 718 1546 767 1433 750 b 1044 592 1214 685 1121 643 l 1263 931 z m 982 279 b 864 208 936 242 896 218 b 1035 454 938 326 994 408 b 1126 521 1075 499 1106 521 b 1150 492 1142 521 1150 511 b 1100 394 1150 468 1133 435 b 982 279 1067 354 1028 315 z "},"c":{"ha":1851,"x_min":0,"x_max":0,"o":"m 1308 -19 b 1604 31 1418 -10 1517 7 l 1801 336 b 1450 328 1722 332 1604 329 b 1028 324 1296 325 1154 324 b 829 360 896 324 829 336 b 885 392 829 372 847 382 b 1086 406 922 401 989 406 b 1828 371 1308 406 1556 394 l 2019 672 b 1669 739 1938 699 1821 721 b 1174 765 1518 757 1353 765 b 546 700 926 765 717 743 b 161 529 374 656 246 599 b 33 308 76 458 33 385 b 122 139 33 247 63 190 b 410 13 182 88 278 44 b 917 -36 542 -19 710 -36 b 1308 -19 1068 -36 1199 -31 z "},"d":{"ha":1961,"x_min":0,"x_max":0,"o":"m 1668 0 l 2278 939 l 1444 939 l 1238 622 b 1047 731 1179 669 1115 706 b 800 767 978 754 896 767 b 369 674 638 767 494 736 b 81 444 244 611 149 535 b -21 183 13 353 -21 265 b 58 21 -21 113 6 58 b 293 -36 110 -17 189 -36 b 639 13 410 -36 525 -19 b 924 139 753 44 847 88 l 924 0 z m 986 453 b 1103 522 1032 489 1071 513 b 933 278 1029 404 974 322 b 840 210 893 232 861 210 b 817 239 825 210 817 219 b 867 336 817 263 833 296 b 986 453 900 376 940 415 z "},"e":{"ha":1901,"x_min":0,"x_max":0,"o":"m 1090 511 b 1021 401 1078 490 1056 453 l 924 401 b 1019 532 964 463 996 506 b 1083 571 1043 558 1065 571 b 1107 553 1099 571 1107 565 b 1090 511 1107 546 1101 532 z m 140 508 b 18 279 58 433 18 357 b 894 -36 18 69 310 -36 b 1383 -15 1085 -36 1249 -29 b 1669 32 1518 -3 1613 14 l 1843 299 b 1174 286 1651 290 1428 286 b 985 289 1092 286 1028 288 b 894 299 942 290 911 294 b 869 318 878 303 869 310 b 879 339 869 322 872 329 l 1868 339 b 1932 494 1911 393 1932 444 b 1850 638 1932 549 1904 596 b 1596 733 1794 678 1710 710 b 1167 767 1481 756 1338 767 b 521 693 908 767 693 742 b 140 508 347 644 221 582 z "},"f":{"ha":1544,"x_min":0,"x_max":0,"o":"m 1168 547 l 1204 603 l 1671 603 l 1860 894 b 1046 967 1575 943 1304 967 b 757 936 925 967 828 957 b 556 819 685 915 618 876 b 335 547 493 761 419 671 l 146 547 l -53 242 l 136 242 l -21 0 l 813 0 l 969 242 l 1394 242 l 1593 547 z "},"g":{"ha":1849,"x_min":0,"x_max":0,"o":"m 1088 493 b 1046 440 1076 472 1063 456 b 996 417 1029 425 1013 417 b 972 442 981 417 972 425 b 989 490 972 454 978 469 b 1031 544 1000 511 1014 529 b 1081 567 1047 560 1064 567 b 1104 542 1096 567 1104 558 b 1088 493 1104 529 1099 514 z m 332 283 b 386 265 349 278 367 271 b 697 231 464 242 568 231 l 1208 231 b 1575 278 1349 231 1471 246 b 1811 396 1679 310 1757 349 b 1890 532 1865 442 1892 488 b 1814 650 1889 575 1864 615 b 1751 683 1796 663 1775 674 l 1996 683 l 2050 767 l 1149 767 b 613 722 938 767 758 751 b 283 604 465 692 356 653 b 174 453 210 556 174 506 b 222 351 174 418 190 385 b 232 340 225 347 228 344 b 71 272 172 321 119 297 b -129 118 -18 225 -85 174 b -197 -44 -175 63 -197 8 b -131 -149 -197 -85 -175 -119 b 106 -218 -87 -178 -8 -201 b 578 -244 219 -236 376 -244 b 1011 -233 703 -244 847 -240 b 1417 -208 1174 -226 1310 -218 l 1665 175 l 949 175 b 536 185 765 175 628 178 b 357 207 443 190 383 197 b 315 243 329 217 315 228 b 332 283 315 254 321 268 z "},"h":{"ha":1863,"x_min":0,"x_max":0,"o":"m 832 267 b 886 339 854 301 872 325 b 928 358 900 351 914 358 b 946 354 935 358 942 357 b 951 342 950 350 951 346 b 946 317 951 335 950 326 b 915 267 942 307 931 290 l 743 0 l 1576 0 l 1860 436 b 1911 589 1894 490 1911 540 b 1822 718 1910 643 1881 686 b 1542 767 1763 750 1669 767 b 1261 717 1446 767 1353 750 b 1040 589 1168 682 1094 640 l 1258 931 l 429 931 l -174 0 l 660 0 z "},"i":{"ha":946,"x_min":0,"x_max":0,"o":"m 422 931 l 329 786 l 1163 786 l 1256 931 z m 653 0 l 1126 731 l 293 731 l -181 0 z "},"j":{"ha":1092,"x_min":0,"x_max":0,"o":"m 569 931 l 475 786 l 1308 786 l 1403 931 z m 694 -83 b 911 178 765 -24 838 64 l 1269 731 l 436 731 l 79 178 l -107 178 l -344 -186 b -99 -232 -247 -208 -165 -224 b 179 -244 -32 -240 61 -244 b 469 -210 292 -244 389 -233 b 694 -83 549 -186 624 -144 z "},"k":{"ha":1838,"x_min":0,"x_max":0,"o":"m 897 368 l 753 0 l 1586 0 l 1678 336 l 2057 731 l 1224 731 z m 658 0 l 1263 931 l 429 931 l -175 0 z "},"l":{"ha":944,"x_min":0,"x_max":0,"o":"m 651 0 l 1256 931 l 422 931 l -182 0 z "},"m":{"ha":2779,"x_min":0,"x_max":0,"o":"m 1890 506 b 1906 544 1897 519 1903 532 b 1910 589 1908 556 1910 571 b 1821 718 1908 643 1879 686 b 1542 767 1763 750 1669 767 b 1263 717 1447 767 1354 750 b 1042 589 1169 683 1096 640 l 1129 731 l 300 731 l -174 0 l 660 0 l 832 267 b 886 339 854 301 872 325 b 928 358 900 351 914 358 b 946 354 935 358 942 357 b 951 342 950 350 951 346 b 946 317 951 335 950 326 b 915 267 942 307 931 290 l 743 0 l 1576 0 l 1749 267 b 1803 339 1771 301 1789 325 b 1844 358 1817 351 1831 358 b 1863 354 1851 358 1858 357 b 1868 342 1867 350 1868 346 b 1863 317 1868 335 1867 326 b 1832 267 1858 307 1847 290 l 1660 0 l 2493 0 l 2775 436 b 2826 589 2810 490 2826 540 b 2738 718 2825 643 2796 686 b 2458 767 2679 750 2586 767 b 2125 697 2340 767 2229 743 b 1890 506 2021 650 1942 586 z "},"n":{"ha":1863,"x_min":0,"x_max":0,"o":"m 1129 731 l 300 731 l -174 0 l 660 0 l 832 267 b 886 339 854 301 872 325 b 928 358 900 351 914 358 b 946 354 935 358 942 357 b 951 342 950 350 951 346 b 946 317 951 335 950 326 b 915 267 942 307 931 290 l 743 0 l 1576 0 l 1858 436 b 1910 589 1893 490 1910 540 b 1821 718 1908 643 1879 686 b 1542 767 1763 750 1669 767 b 1263 717 1447 767 1354 750 b 1042 589 1169 683 1096 640 z "},"o":{"ha":2022,"x_min":0,"x_max":0,"o":"m 204 40 b 746 -36 331 -11 511 -36 b 1415 26 1003 -36 1225 -15 b 1854 203 1606 67 1751 126 b 2008 472 1957 279 2008 368 b 1808 689 2008 565 1942 638 b 1236 765 1674 740 1483 765 b 588 703 988 765 772 744 b 163 526 403 661 261 603 b 14 256 64 450 14 360 b 204 40 14 163 78 92 z m 985 281 b 924 233 960 249 939 233 b 907 256 913 233 907 240 b 936 346 907 276 917 306 b 1001 451 954 385 976 419 b 1064 497 1026 482 1047 497 b 1079 475 1074 497 1079 490 b 1050 386 1079 454 1069 425 b 985 281 1031 346 1008 311 z "},"p":{"ha":1961,"x_min":0,"x_max":0,"o":"m 293 731 l -317 -208 l 517 -208 l 724 108 b 915 1 782 61 846 25 b 1161 -36 983 -24 1065 -36 b 1592 57 1324 -36 1467 -6 b 1881 288 1717 119 1813 196 b 1982 547 1949 378 1982 465 b 1904 710 1982 618 1956 672 b 1668 767 1851 747 1772 767 b 1322 718 1551 767 1436 750 b 1038 592 1208 686 1114 643 l 1038 731 z m 976 279 b 858 208 931 242 890 218 b 1029 454 932 326 989 408 b 1121 521 1069 499 1100 521 b 1144 492 1136 521 1144 511 b 1094 394 1144 468 1128 435 b 976 279 1061 354 1022 315 z "},"q":{"ha":1965,"x_min":0,"x_max":0,"o":"m 1536 -200 l 2140 731 l 1307 731 l 1235 622 b 1044 731 1176 669 1113 706 b 797 767 975 754 893 767 b 367 674 635 767 490 736 b 79 442 242 611 146 533 b -22 179 11 349 -22 261 b 60 21 -22 111 6 58 b 304 -36 114 -17 194 -36 b 643 14 419 -36 533 -19 b 921 139 753 46 844 88 l 703 -200 z m 985 453 b 1101 522 1031 489 1069 513 b 932 278 1028 404 972 322 b 839 210 892 232 860 210 b 815 239 824 210 815 219 b 865 336 815 263 832 296 b 985 453 899 376 939 415 z "},"r":{"ha":1394,"x_min":0,"x_max":0,"o":"m 1604 735 b 1449 767 1564 756 1511 767 b 1233 726 1376 767 1304 753 b 1033 615 1163 699 1096 661 l 1078 731 l 300 731 l -172 0 l 661 0 l 818 242 l 1286 242 z "},"s":{"ha":1792,"x_min":0,"x_max":0,"o":"m 963 339 b 939 306 963 324 954 313 b 842 294 924 299 890 294 l -4 294 l -168 43 b 278 -14 -62 19 86 0 b 822 -36 468 -29 650 -36 b 1258 -11 1003 -36 1149 -28 b 1508 58 1368 6 1451 29 b 1636 169 1565 88 1607 125 b 1668 264 1657 204 1668 235 b 1625 349 1668 299 1654 326 b 1503 381 1596 369 1556 381 l 836 381 b 861 415 836 396 844 408 b 957 425 876 422 908 425 l 1803 425 l 1974 688 b 1529 746 1868 711 1719 731 b 983 767 1338 760 1156 767 b 547 742 803 767 657 758 b 297 672 438 725 354 701 b 169 561 240 643 199 606 b 139 467 149 531 139 499 b 189 375 139 429 156 399 b 344 339 221 351 274 339 z "},"t":{"ha":1358,"x_min":0,"x_max":0,"o":"m 1000 288 l 1281 288 l 1565 731 l 1288 731 l 1381 874 l 547 874 l 454 731 l 265 731 l -19 288 l 167 288 l -19 0 l 814 0 z "},"u":{"ha":1828,"x_min":0,"x_max":0,"o":"m 889 414 b 918 464 893 424 903 440 l 1092 731 l 258 731 l -3 324 b -57 157 -39 268 -57 213 b 25 18 -57 100 -29 54 b 293 -36 79 -18 168 -36 b 568 14 388 -36 479 -19 b 771 133 656 46 724 86 l 772 0 l 1535 0 l 2008 731 l 1175 731 l 1001 464 b 947 393 979 431 961 407 b 906 372 933 379 919 372 b 889 378 899 372 893 374 b 882 389 885 381 882 385 b 889 414 882 396 885 404 z "},"v":{"ha":1732,"x_min":0,"x_max":0,"o":"m 1081 731 l 838 350 l 935 731 l 154 731 l 85 0 l 1382 0 l 1983 731 z "},"w":{"ha":1943,"x_min":0,"x_max":0,"o":"m 154 731 l -49 0 l 639 0 l 931 372 l 796 0 l 1569 0 l 2194 731 l 1268 731 l 1032 371 l 1160 731 l 1111 731 l 818 371 l 1015 731 z "},"x":{"ha":1811,"x_min":0,"x_max":0,"o":"m 597 0 l 868 365 l 1071 731 l 251 731 l 135 399 l -221 0 z m 868 365 l 724 0 l 1560 0 l 1651 336 l 2031 731 l 1197 731 z "},"y":{"ha":1685,"x_min":0,"x_max":0,"o":"m 738 200 l 894 731 l 113 731 l -40 0 l 632 0 l 521 -208 l 1299 -208 l 1908 731 l 1019 731 z "},"z":{"ha":1861,"x_min":0,"x_max":0,"o":"m 1854 440 l 2043 731 l 293 731 l 64 378 l 997 406 l 7 290 l -181 0 l 1568 0 l 1797 353 l 851 325 z "},"¡":{"ha":947,"x_min":0,"x_max":0,"o":"m -179 0 l 654 0 l 1013 556 l 179 556 z m 1049 611 l 1256 931 l 422 931 l 215 611 z "},"¿":{"ha":1861,"x_min":0,"x_max":0,"o":"m 1597 676 l 1768 940 l 864 940 l 693 676 z m 933 442 l 1444 442 l 1561 621 l 588 621 b 253 575 454 621 343 606 b 54 447 163 543 97 501 b -11 264 11 393 -11 332 b 156 53 -11 176 44 106 b 696 -26 267 0 447 -26 b 1167 1 860 -26 1017 -17 b 1671 83 1315 19 1483 46 l 1868 386 l 1007 386 b 954 314 985 349 967 325 b 904 297 942 303 925 297 b 872 321 883 297 872 306 b 910 406 872 339 885 368 z "},"Œ":{"ha":2965,"x_min":0,"x_max":0,"o":"m 988 440 b 1071 572 1011 489 1039 533 b 1149 631 1101 611 1128 631 b 1168 604 1161 631 1168 622 b 1132 493 1168 579 1156 542 b 1050 360 1108 443 1081 399 b 974 301 1018 321 993 301 b 951 329 958 301 951 311 b 988 440 951 354 964 392 z m 1242 931 b 594 843 985 931 769 901 b 204 618 419 785 289 710 b 76 333 119 526 76 432 b 154 169 76 274 103 218 b 419 47 206 119 294 79 b 913 0 543 15 708 0 l 2686 0 l 2929 375 l 2015 378 l 2050 432 l 2819 429 l 2865 499 l 2094 499 l 2131 554 l 3047 556 l 3290 931 z "},"…":{"ha":556,"x_min":0,"x_max":0,"o":"m -149 69 l -196 0 l -99 0 l -51 69 z m 4 69 l -43 0 l 54 0 l 101 69 z m 157 69 l 110 0 l 207 0 l 254 69 z "}}}
